# Blender v2.78 (sub 0) OBJ File: ''
# www.blender.org
o Miku_Earmuffs_2_Earmuffs.002
v -0.285591 -0.182490 -0.264149
v -0.285591 -0.150663 -0.258537
v -0.285591 -0.176878 -0.295975
v -0.285591 -0.145052 -0.290364
v -0.233883 -0.182490 -0.264149
v -0.233883 -0.150663 -0.258537
v -0.262230 -0.146962 -0.293921
v -0.262230 -0.172761 -0.298470
v -0.262230 -0.197140 -0.009347
v -0.262230 -0.222939 -0.013896
v -0.288159 -0.146962 -0.293921
v -0.288159 -0.172761 -0.298470
v -0.288159 -0.197140 -0.009347
v -0.288159 -0.222939 -0.013896
v -0.285591 -0.182490 -0.264149
v -0.285591 -0.150663 -0.258537
v -0.285591 -0.176878 -0.295975
v -0.285591 -0.145052 -0.290364
v -0.233883 -0.182490 -0.264149
v -0.233883 -0.150663 -0.258537
v -0.233883 -0.176878 -0.295975
v -0.233883 -0.145052 -0.290364
v -0.262230 -0.146962 -0.293921
v -0.262230 -0.172761 -0.298470
v -0.262230 -0.197140 -0.009347
v -0.262230 -0.222939 -0.013896
v -0.288159 -0.146962 -0.293921
v -0.288159 -0.172761 -0.298470
v -0.288159 -0.197140 -0.009347
v -0.288159 -0.222939 -0.013896
vt 0.3079 0.8327
vt 0.3079 0.8198
vt 0.3208 0.8198
vt 0.3208 0.8327
vt 0.6138 0.4925
vt 0.6009 0.4903
vt 0.6260 0.3480
vt 0.6389 0.3503
vt 0.4265 0.6465
vt 0.4394 0.6465
vt 0.4394 0.5042
vt 0.4265 0.5042
vt 0.5762 0.6392
vt 0.5921 0.6420
vt 0.5949 0.6261
vt 0.5790 0.6233
vt 0.5600 0.5369
vt 0.5600 0.5528
vt 0.5341 0.5528
vt 0.5341 0.5369
vt 0.3828 0.5092
vt 0.3828 0.5251
vt 0.4086 0.5251
vt 0.4086 0.5092
vt 0.2612 0.8184
vt 0.2771 0.8212
vt 0.2743 0.8371
vt 0.2584 0.8343
vt 0.5456 0.6233
vt 0.5714 0.6233
vt 0.5714 0.6392
vt 0.5456 0.6392
vt 0.5714 0.6230
vt 0.5456 0.6230
vt 0.5456 0.6389
vt 0.5714 0.6389
vt 0.5464 0.5758
vt 0.5464 0.5629
vt 0.5334 0.5629
vt 0.5334 0.5758
vt 0.4917 0.5059
vt 0.4788 0.5037
vt 0.4537 0.6460
vt 0.4666 0.6482
vt 0.4402 0.6472
vt 0.4272 0.6472
vt 0.4272 0.5050
vt 0.4402 0.5050
vn 0.0000 -0.1736 0.9848
vn 1.0000 -0.0000 0.0000
vn 0.0000 0.9848 0.1736
vn -1.0000 0.0000 0.0000
vn 0.0000 0.1736 -0.9848
vn 0.0000 -0.9848 -0.1736
s off
f 11/1/1 12/2/1 8/3/1 7/4/1
f 29/5/2 30/6/2 28/7/2 27/8/2
f 30/9/3 26/10/3 24/11/3 28/12/3
f 1/13/4 2/14/4 4/15/4 3/16/4
f 5/17/1 6/18/1 2/19/1 1/20/1
f 17/21/5 18/22/5 22/23/5 21/24/5
f 21/25/2 22/26/2 20/27/2 19/28/2
f 17/29/6 21/30/6 19/31/6 15/32/6
f 22/33/3 18/34/3 16/35/3 20/36/3
f 9/37/5 10/38/5 14/39/5 13/40/5
f 23/41/4 24/42/4 26/43/4 25/44/4
f 25/45/6 29/46/6 27/47/6 23/48/6
o Miku_TwinTail_TwinTailModel
v -0.257751 -0.506688 0.200879
v -0.297475 -0.506694 0.075310
v -0.228583 -0.483192 0.057753
v -0.193580 -0.483159 0.180219
v -0.357986 -0.371132 0.092045
v -0.267245 -0.365723 0.067884
v -0.312818 -0.372039 0.221729
v -0.233236 -0.365274 0.190460
v -0.367722 -0.363984 0.240462
v -0.461859 -0.453819 0.267010
v -0.366163 -0.265611 0.272619
v -0.454221 -0.298405 0.311702
v -0.414718 -0.363097 0.112625
v -0.502139 -0.439335 0.158177
v -0.423479 0.146127 0.348811
v -0.539183 0.042413 0.382638
v -0.411418 -0.265879 0.169465
v -0.499332 -0.298300 0.208739
v -0.580837 0.511457 0.426855
v -0.714104 0.392515 0.473056
v -0.478372 0.117725 0.200072
v -0.594076 0.014012 0.233898
v -0.640432 0.780998 0.404772
v -0.732626 0.715213 0.450808
v -0.649812 0.469142 0.252565
v -0.783080 0.350200 0.298765
v -0.653702 0.924474 0.426985
v -0.714977 0.884827 0.454236
v -0.697728 0.749070 0.286089
v -0.789922 0.683285 0.332124
v -0.688624 0.914002 0.350243
v -0.750376 0.874090 0.377002
v 0.257751 -0.506688 0.200879
v 0.193580 -0.483159 0.180219
v 0.228583 -0.483192 0.057753
v 0.297475 -0.506694 0.075310
v 0.267245 -0.365723 0.067884
v 0.357986 -0.371132 0.092045
v 0.233236 -0.365274 0.190460
v 0.312818 -0.372039 0.221729
v 0.461859 -0.453819 0.267010
v 0.367722 -0.363984 0.240462
v 0.454221 -0.298405 0.311702
v 0.366163 -0.265611 0.272619
v 0.414718 -0.363097 0.112625
v 0.502139 -0.439335 0.158177
v 0.539183 0.042413 0.382638
v 0.423479 0.146127 0.348811
v 0.411418 -0.265879 0.169465
v 0.499332 -0.298300 0.208739
v 0.714104 0.392515 0.473056
v 0.580837 0.511457 0.426855
v 0.478372 0.117725 0.200072
v 0.594076 0.014012 0.233898
v 0.732626 0.715213 0.450808
v 0.640432 0.780998 0.404772
v 0.649812 0.469142 0.252565
v 0.783080 0.350200 0.298765
v 0.714977 0.884827 0.454236
v 0.653702 0.924474 0.426985
v 0.697728 0.749070 0.286089
v 0.789922 0.683285 0.332124
v 0.750376 0.874090 0.377002
v 0.688624 0.914002 0.350243
vt 0.1875 0.1875
vt 0.1250 0.1875
vt 0.1250 0.1562
vt 0.1875 0.1562
vt 0.0625 0.2188
vt 0.0625 0.1562
vt 0.1250 0.0938
vt 0.0625 0.0938
vt 0.0625 0.1562
vt 0.1250 0.1562
vt -0.0000 0.2188
vt 0.0000 0.1562
vt 0.2500 0.2188
vt 0.2500 0.1562
vt 0.1250 0.0938
vt 0.0625 0.0938
vt 0.2500 0.2500
vt 0.1875 0.2812
vt 0.2500 0.3438
vt 0.1875 0.3438
vt 0.0625 0.2500
vt -0.0000 0.2500
vt 0.1250 0.2812
vt 0.2500 0.5312
vt 0.1875 0.5312
vt 0.0625 0.3438
vt -0.0000 0.3438
vt 0.1250 0.3438
vt 0.2500 0.7500
vt 0.1875 0.7500
vt 0.0625 0.5312
vt 0.0000 0.5312
vt 0.1250 0.5312
vt 0.2500 0.8750
vt 0.1875 0.8750
vt 0.0625 0.7500
vt 0.0000 0.7500
vt 0.1250 0.7500
vt 0.2500 0.9375
vt 0.1875 0.9375
vt 0.0625 0.8750
vt 0.0000 0.8750
vt 0.1250 0.8750
vt 0.0625 1.0000
vt 0.0625 0.9375
vt 0.1250 0.9375
vt 0.1250 1.0000
vt 0.0000 0.9375
vt 0.1875 0.1875
vt 0.1875 0.1562
vt 0.1250 0.1875
vt 0.0625 0.2188
vt 0.0000 0.1562
vt -0.0000 0.2188
vt 0.2500 0.2188
vt 0.2500 0.1562
vt 0.1875 0.2812
vt 0.2500 0.2500
vt 0.1875 0.3438
vt 0.2500 0.3438
vt -0.0000 0.2500
vt 0.0625 0.2500
vt 0.1250 0.2812
vt 0.1875 0.5312
vt 0.2500 0.5312
vt -0.0000 0.3438
vt 0.0625 0.3438
vt 0.1250 0.3438
vt 0.1875 0.7500
vt 0.2500 0.7500
vt 0.0000 0.5312
vt 0.0625 0.5312
vt 0.1250 0.5312
vt 0.1875 0.8750
vt 0.2500 0.8750
vt 0.0000 0.7500
vt 0.0625 0.7500
vt 0.1250 0.7500
vt 0.1875 0.9375
vt 0.2500 0.9375
vt 0.0000 0.8750
vt 0.0625 0.8750
vt 0.1250 0.8750
vt 0.0625 1.0000
vt 0.1250 1.0000
vt 0.1250 0.9375
vt 0.0625 0.9375
vt 0.0000 0.9375
vn 0.3081 -0.9468 -0.0927
vn -0.2534 0.0034 -0.9674
vn -0.9101 0.3251 -0.2570
vn -0.0642 0.9977 0.0220
vn 0.3377 0.0108 0.9412
vn 0.9101 0.3251 -0.2570
vn 0.3051 -0.0289 0.9519
vn 0.4819 -0.2699 0.8336
vn 0.1290 0.9909 -0.0393
vn -0.3858 -0.0761 -0.9194
vn -0.2709 -0.9620 0.0330
vn 0.3959 -0.1035 0.9125
vn 0.9191 0.1440 -0.3667
vn -0.5744 0.3486 -0.7407
vn -0.9261 -0.0855 0.3675
vn 0.3513 -0.0569 0.9345
vn 0.9042 0.1925 -0.3814
vn -0.3363 -0.0027 -0.9417
vn -0.8755 -0.2970 0.3812
vn 0.2976 0.1102 0.9483
vn 0.8014 0.4412 -0.4039
vn -0.3072 0.0014 -0.9517
vn -0.7675 -0.4983 0.4034
vn 0.4730 -0.0785 0.8776
vn 0.8854 0.1821 -0.4277
vn -0.4205 0.0612 -0.9052
vn -0.9136 -0.0422 0.4044
vn -0.5043 0.8562 0.1124
vn 0.8840 0.1371 -0.4469
vn -0.5723 0.3109 -0.7589
vn -0.9077 0.0891 0.4101
vn -0.3081 -0.9468 -0.0927
vn 0.2534 0.0034 -0.9674
vn 0.0642 0.9977 0.0220
vn -0.3377 0.0108 0.9412
vn -0.3051 -0.0289 0.9519
vn -0.4819 -0.2699 0.8336
vn -0.1290 0.9909 -0.0393
vn 0.3858 -0.0761 -0.9194
vn 0.2709 -0.9620 0.0330
vn -0.3959 -0.1035 0.9125
vn -0.9191 0.1440 -0.3667
vn 0.5744 0.3486 -0.7407
vn 0.9261 -0.0855 0.3675
vn -0.3513 -0.0569 0.9345
vn -0.9042 0.1925 -0.3814
vn 0.3363 -0.0027 -0.9417
vn 0.8755 -0.2970 0.3812
vn -0.2976 0.1102 0.9483
vn -0.8014 0.4412 -0.4039
vn 0.3072 0.0014 -0.9517
vn 0.7675 -0.4983 0.4034
vn -0.4730 -0.0785 0.8776
vn -0.8854 0.1821 -0.4277
vn 0.4205 0.0612 -0.9052
vn 0.9136 -0.0422 0.4044
vn 0.5043 0.8562 0.1124
vn -0.8840 0.1371 -0.4469
vn 0.5723 0.3109 -0.7589
vn 0.9077 0.0891 0.4101
s 1
f 31/49/7 32/50/7 33/51/7 34/52/7
f 32/50/8 35/53/8 36/54/8 33/51/8
f 64/55/9 69/56/9 67/57/9 65/58/9
f 35/53/10 37/59/10 38/60/10 36/54/10
f 37/61/11 31/49/11 34/52/11 38/62/11
f 34/63/12 33/51/12 36/54/12 38/64/12
f 31/49/13 37/61/13 39/65/13 40/66/13
f 40/66/14 39/65/14 41/67/14 42/68/14
f 37/59/15 35/53/15 43/69/15 39/70/15
f 35/53/16 32/50/16 44/71/16 43/69/16
f 32/50/17 31/49/17 40/66/17 44/71/17
f 42/68/18 41/67/18 45/72/18 46/73/18
f 39/70/19 43/69/19 47/74/19 41/75/19
f 43/69/20 44/71/20 48/76/20 47/74/20
f 44/71/21 40/66/21 42/68/21 48/76/21
f 46/73/22 45/72/22 49/77/22 50/78/22
f 41/75/23 47/74/23 51/79/23 45/80/23
f 47/74/24 48/76/24 52/81/24 51/79/24
f 48/76/25 42/68/25 46/73/25 52/81/25
f 50/78/26 49/77/26 53/82/26 54/83/26
f 45/80/27 51/79/27 55/84/27 49/85/27
f 51/79/28 52/81/28 56/86/28 55/84/28
f 52/81/29 46/73/29 50/78/29 56/86/29
f 54/83/30 53/82/30 57/87/30 58/88/30
f 49/85/31 55/84/31 59/89/31 53/90/31
f 55/84/32 56/86/32 60/91/32 59/89/32
f 56/86/33 50/78/33 54/83/33 60/91/33
f 57/92/34 61/93/34 62/94/34 58/95/34
f 53/90/35 59/89/35 61/93/35 57/96/35
f 59/89/36 60/91/36 62/94/36 61/93/36
f 60/91/37 54/83/37 58/88/37 62/94/37
f 63/97/38 64/98/38 65/58/38 66/99/38
f 66/99/39 65/58/39 67/57/39 68/100/39
f 68/100/40 67/57/40 69/101/40 70/102/40
f 70/103/41 69/104/41 64/98/41 63/97/41
f 63/97/42 71/105/42 72/106/42 70/103/42
f 71/105/43 73/107/43 74/108/43 72/106/43
f 70/102/44 72/109/44 75/110/44 68/100/44
f 68/100/45 75/110/45 76/111/45 66/99/45
f 66/99/46 76/111/46 71/105/46 63/97/46
f 73/107/47 77/112/47 78/113/47 74/108/47
f 72/109/48 74/114/48 79/115/48 75/110/48
f 75/110/49 79/115/49 80/116/49 76/111/49
f 76/111/50 80/116/50 73/107/50 71/105/50
f 77/112/51 81/117/51 82/118/51 78/113/51
f 74/114/52 78/119/52 83/120/52 79/115/52
f 79/115/53 83/120/53 84/121/53 80/116/53
f 80/116/54 84/121/54 77/112/54 73/107/54
f 81/117/55 85/122/55 86/123/55 82/118/55
f 78/119/56 82/124/56 87/125/56 83/120/56
f 83/120/57 87/125/57 88/126/57 84/121/57
f 84/121/58 88/126/58 81/117/58 77/112/58
f 85/122/59 89/127/59 90/128/59 86/123/59
f 82/124/60 86/129/60 91/130/60 87/125/60
f 87/125/61 91/130/61 92/131/61 88/126/61
f 88/126/62 92/131/62 85/122/62 81/117/62
f 90/132/63 89/133/63 93/134/63 94/135/63
f 86/129/64 90/136/64 94/135/64 91/130/64
f 91/130/65 94/135/65 93/134/65 92/131/65
f 92/131/66 93/134/66 89/127/66 85/122/66
o Miku_Ribbon_2_ribbon
v 0.279764 -0.654613 0.250930
v 0.242639 -0.637058 0.249121
v 0.243960 -0.631785 -0.000784
v 0.281084 -0.649340 0.001025
v 0.254467 -0.384318 0.005054
v 0.291591 -0.401875 0.006863
v 0.253146 -0.389592 0.254960
v 0.290271 -0.407148 0.256769
v 0.280237 -0.644504 0.241167
v 0.281452 -0.639653 0.011255
v 0.244327 -0.622096 0.009446
v 0.243113 -0.626948 0.239359
v 0.291118 -0.411984 0.016626
v 0.253994 -0.394428 0.014817
v 0.289903 -0.416836 0.246539
v 0.252779 -0.399279 0.244730
v -0.288677 -0.654613 0.250930
v -0.289997 -0.649340 0.001025
v -0.252873 -0.631785 -0.000784
v -0.251553 -0.637058 0.249121
v -0.300504 -0.401875 0.006863
v -0.263380 -0.384318 0.005054
v -0.299184 -0.407148 0.256769
v -0.262059 -0.389592 0.254960
v -0.289150 -0.644504 0.241167
v -0.290365 -0.639653 0.011255
v -0.253240 -0.622096 0.009446
v -0.252026 -0.626948 0.239359
v -0.300031 -0.411984 0.016626
v -0.262907 -0.394428 0.014817
v -0.298816 -0.416836 0.246539
v -0.261692 -0.399279 0.244730
vt 0.4375 0.8750
vt 0.4375 0.7812
vt 0.2500 0.7812
vt 0.2500 0.8750
vt 1.0000 0.8750
vt 1.0000 0.7812
vt 0.8125 0.7812
vt 0.8125 0.8750
vt 0.6250 0.7812
vt 0.6250 0.8750
vt 0.4375 0.9062
vt 0.2500 0.9062
vt 0.2500 0.7500
vt 0.4375 0.7500
vt 1.0000 0.9062
vt 0.8125 0.9062
vt 0.8125 0.7500
vt 1.0000 0.7500
vt 0.6250 0.9062
vt 0.6250 0.7500
vt 0.6250 0.8750
vt 0.6250 0.7812
vt 0.4375 0.7812
vt 0.4375 0.8750
vt 0.9688 0.8750
vt 0.9688 0.7812
vt 0.7812 0.7812
vt 0.7812 0.8750
vt 0.2500 0.7812
vt 0.2500 0.8750
vt 0.4375 0.8750
vt 0.2500 0.8750
vt 0.2500 0.7812
vt 0.4375 0.7812
vt 1.0000 0.8750
vt 0.8125 0.8750
vt 0.8125 0.7812
vt 1.0000 0.7812
vt 0.6250 0.8750
vt 0.6250 0.7812
vt 0.4375 0.9062
vt 0.2500 0.9062
vt 0.2500 0.7500
vt 0.4375 0.7500
vt 1.0000 0.9062
vt 0.8125 0.9062
vt 0.8125 0.7500
vt 1.0000 0.7500
vt 0.6250 0.9062
vt 0.6250 0.7500
vt 0.6250 0.8750
vt 0.4375 0.8750
vt 0.4375 0.7812
vt 0.6250 0.7812
vt 0.9688 0.8750
vt 0.7812 0.8750
vt 0.7812 0.7812
vt 0.9688 0.7812
vt 0.2500 0.8750
vt 0.2500 0.7812
vn -0.4265 -0.9042 -0.0213
vn 0.0586 0.0211 -0.9981
vn 0.4266 0.9042 0.0213
vn -0.0586 -0.0211 0.9981
vn 0.9991 -0.0425 0.0044
vn -0.9991 0.0425 -0.0044
vn -0.4266 -0.9042 -0.0213
vn 0.4266 -0.9042 -0.0213
vn -0.0586 0.0211 -0.9981
vn -0.4266 0.9042 0.0213
vn 0.0586 -0.0211 0.9981
vn -0.9991 -0.0425 0.0044
vn 0.9991 0.0425 -0.0044
s 1
f 95/137/67 96/138/67 97/139/67 98/140/67
f 98/141/68 97/142/68 99/143/68 100/144/68
f 100/144/69 99/143/69 101/145/69 102/146/69
f 102/146/70 101/145/70 96/138/70 95/137/70
f 103/147/71 95/137/71 98/140/71 104/148/71
f 105/149/72 97/139/72 96/138/72 106/150/72
f 104/151/71 98/141/71 100/144/71 107/152/71
f 108/153/72 99/143/72 97/142/72 105/154/72
f 107/152/71 100/144/71 102/146/71 109/155/71
f 110/156/72 101/145/72 99/143/72 108/153/72
f 109/155/71 102/146/71 95/137/71 103/147/71
f 106/150/72 96/138/72 101/145/72 110/156/72
f 110/157/68 109/158/68 103/159/68 106/160/68
f 105/161/70 104/162/70 107/163/70 108/164/70
f 106/160/69 103/159/69 104/165/69 105/166/69
f 108/164/73 107/163/73 109/158/73 110/157/73
f 111/167/74 112/168/74 113/169/74 114/170/74
f 112/171/75 115/172/75 116/173/75 113/174/75
f 115/172/76 117/175/76 118/176/76 116/173/76
f 117/175/77 111/167/77 114/170/77 118/176/77
f 119/177/78 120/178/78 112/168/78 111/167/78
f 121/179/79 122/180/79 114/170/79 113/169/79
f 120/181/78 123/182/78 115/172/78 112/171/78
f 124/183/79 121/184/79 113/174/79 116/173/79
f 123/182/78 125/185/78 117/175/78 115/172/78
f 126/186/79 124/183/79 116/173/79 118/176/79
f 125/185/78 119/177/78 111/167/78 117/175/78
f 122/180/79 126/186/79 118/176/79 114/170/79
f 126/187/75 122/188/75 119/189/75 125/190/75
f 121/191/77 124/192/77 123/193/77 120/194/77
f 122/188/76 121/195/76 120/196/76 119/189/76
f 124/192/74 126/187/74 125/190/74 123/193/74
o Miku_Earmuffs_2_Earmuffs
v -0.305568 -0.187093 0.179379
v -0.305568 -0.309112 0.152242
v -0.243068 -0.309112 0.152242
v -0.243068 -0.187093 0.179379
v -0.305568 -0.268405 -0.030786
v -0.243068 -0.268405 -0.030786
v -0.305568 -0.146386 -0.003649
v -0.243068 -0.146386 -0.003648
v 0.305568 -0.187093 0.179379
v 0.243068 -0.187093 0.179379
v 0.243068 -0.309112 0.152242
v 0.305568 -0.309112 0.152242
v 0.243068 -0.268405 -0.030786
v 0.305568 -0.268405 -0.030786
v 0.243068 -0.146386 -0.003648
v 0.305568 -0.146386 -0.003649
vt 0.4062 0.5000
vt 0.4062 0.6250
vt 0.3438 0.6250
vt 0.3438 0.5000
vt 0.5938 0.6250
vt 0.5938 0.6875
vt 0.4062 0.6875
vt 0.5938 0.5000
vt 0.6562 0.5000
vt 0.6562 0.6250
vt 0.4062 0.4375
vt 0.5938 0.4375
vt 0.8438 0.5000
vt 0.8438 0.6250
vt 0.4062 0.5000
vt 0.3438 0.5000
vt 0.3438 0.6250
vt 0.4062 0.6250
vt 0.4062 0.6875
vt 0.5938 0.6875
vt 0.5938 0.6250
vt 0.6562 0.6250
vt 0.6562 0.5000
vt 0.5938 0.5000
vt 0.5938 0.4375
vt 0.4062 0.4375
vt 0.8438 0.5000
vt 0.8438 0.6250
vn 0.0000 -0.2171 0.9762
vn 0.0000 -0.9761 -0.2171
vn 0.0000 0.2171 -0.9761
vn -0.0000 0.9761 0.2171
vn 1.0000 0.0000 0.0000
vn -1.0000 -0.0000 0.0000
s 1
f 127/197/80 128/198/80 129/199/80 130/200/80
f 128/198/81 131/201/81 132/202/81 129/203/81
f 131/201/82 133/204/82 134/205/82 132/206/82
f 133/204/83 127/197/83 130/207/83 134/208/83
f 130/209/84 129/210/84 132/206/84 134/205/84
f 133/204/85 131/201/85 128/198/85 127/197/85
f 135/211/80 136/212/80 137/213/80 138/214/80
f 138/214/81 137/215/81 139/216/81 140/217/81
f 140/217/82 139/218/82 141/219/82 142/220/82
f 142/220/83 141/221/83 136/222/83 135/211/83
f 136/223/85 141/219/85 139/218/85 137/224/85
f 142/220/84 135/211/84 138/214/84 140/217/84
