# Blender v2.78 (sub 0) OBJ File: ''
# www.blender.org
o RibbonPart3
v 0.265106 -0.449453 0.114205
v 0.369957 -0.306528 0.197455
v 0.359674 -0.239614 0.203156
v 0.222377 -0.422295 0.099383
v 0.392181 -0.423789 0.042189
v 0.391809 -0.388077 0.003362
v 0.364889 -0.481170 -0.003127
v 0.346642 -0.460136 -0.044794
v 0.257196 -0.502919 0.057905
v 0.224830 -0.484737 0.024240
v -0.265106 -0.449453 0.114205
v -0.222377 -0.422295 0.099383
v -0.359674 -0.239614 0.203156
v -0.369957 -0.306528 0.197455
v -0.391809 -0.388077 0.003362
v -0.392181 -0.423789 0.042189
v -0.346642 -0.460136 -0.044794
v -0.364889 -0.481170 -0.003127
v -0.224830 -0.484737 0.024240
v -0.257196 -0.502919 0.057905
vt 0.2812 0.9375
vt 0.2812 0.8125
vt 0.3125 0.8125
vt 0.3125 0.9375
vt 0.2812 0.6875
vt 0.3125 0.6875
vt 0.2812 0.5938
vt 0.3125 0.5938
vt 0.2812 0.5312
vt 0.3125 0.5312
vt 0.2812 1.0000
vt 0.3125 1.0000
vt 0.2812 0.9375
vt 0.3125 0.9375
vt 0.3125 0.8125
vt 0.2812 0.8125
vt 0.3125 0.6875
vt 0.2812 0.6875
vt 0.3125 0.5938
vt 0.2812 0.5938
vt 0.3125 0.5312
vt 0.2812 0.5312
vt 0.2812 1.0000
vt 0.3125 1.0000
vn -0.4503 -0.1687 0.8768
vn 0.9907 0.1223 0.0602
vn 0.8981 -0.2337 -0.3725
vn -0.0608 -0.9015 -0.4285
vn -0.6614 -0.5487 0.5113
vn 0.4503 -0.1687 0.8768
vn -0.9907 0.1223 0.0602
vn -0.8981 -0.2337 -0.3725
vn 0.0608 -0.9015 -0.4285
vn 0.6614 -0.5487 0.5113
s 1
f 1/1/1 2/2/1 3/3/1 4/4/1
f 2/2/2 5/5/2 6/6/2 3/3/2
f 5/5/3 7/7/3 8/8/3 6/6/3
f 8/8/4 7/7/4 9/9/4 10/10/4
f 9/11/5 1/1/5 4/4/5 10/12/5
f 11/13/6 12/14/6 13/15/6 14/16/6
f 14/16/7 13/15/7 15/17/7 16/18/7
f 16/18/8 15/17/8 17/19/8 18/20/8
f 17/19/9 19/21/9 20/22/9 18/20/9
f 20/23/10 19/24/10 12/14/10 11/13/10
o RibbonPart2
v 0.392567 -0.474121 -0.154511
v 0.420002 -0.378562 -0.306222
v 0.436267 -0.318594 -0.316174
v 0.404866 -0.440813 -0.120944
v 0.276491 -0.454377 -0.225246
v 0.250099 -0.414488 -0.215257
v 0.248929 -0.492388 -0.170286
v 0.227664 -0.462482 -0.141861
v 0.347300 -0.509120 -0.110339
v 0.338932 -0.481408 -0.074055
v -0.392567 -0.474121 -0.154511
v -0.404866 -0.440813 -0.120944
v -0.436267 -0.318594 -0.316174
v -0.420002 -0.378562 -0.306222
v -0.250099 -0.414488 -0.215257
v -0.276491 -0.454377 -0.225246
v -0.227664 -0.462482 -0.141861
v -0.248929 -0.492388 -0.170286
v -0.338932 -0.481408 -0.074055
v -0.347300 -0.509120 -0.110339
vt 0.2812 0.9375
vt 0.2812 0.8125
vt 0.3125 0.8125
vt 0.3125 0.9375
vt 0.2812 0.6875
vt 0.3125 0.6875
vt 0.2812 0.5938
vt 0.3125 0.5938
vt 0.2812 0.5312
vt 0.3125 0.5312
vt 0.2812 1.0000
vt 0.3125 1.0000
vt 0.2812 0.9375
vt 0.3125 0.9375
vt 0.3125 0.8125
vt 0.2812 0.8125
vt 0.3125 0.6875
vt 0.2812 0.6875
vt 0.3125 0.5938
vt 0.2812 0.5938
vt 0.3125 0.5312
vt 0.2812 0.5312
vt 0.2812 1.0000
vt 0.3125 1.0000
vn 0.9573 -0.2884 -0.0187
vn -0.4638 -0.0467 -0.8847
vn -0.8165 -0.2794 -0.5053
vn -0.4256 -0.7638 0.4852
vn 0.7216 -0.5410 0.4320
vn -0.9573 -0.2884 -0.0187
vn 0.4638 -0.0467 -0.8847
vn 0.8165 -0.2794 -0.5053
vn 0.4256 -0.7638 0.4852
vn -0.7216 -0.5410 0.4320
s 1
f 21/25/11 22/26/11 23/27/11 24/28/11
f 22/26/12 25/29/12 26/30/12 23/27/12
f 25/29/13 27/31/13 28/32/13 26/30/13
f 28/32/14 27/31/14 29/33/14 30/34/14
f 29/35/15 21/25/15 24/28/15 30/36/15
f 31/37/16 32/38/16 33/39/16 34/40/16
f 34/40/17 33/39/17 35/41/17 36/42/17
f 36/42/18 35/41/18 37/43/18 38/44/18
f 37/43/19 39/45/19 40/46/19 38/44/19
f 40/47/20 39/48/20 32/38/20 31/37/20
o RibbonPart1
v 0.355001 -0.495707 -0.001152
v 0.539476 -0.381065 -0.055935
v 0.558591 -0.306096 -0.048659
v 0.323156 -0.452332 0.026153
v 0.376378 -0.484860 -0.169076
v 0.351660 -0.437869 -0.197745
v 0.300709 -0.532218 -0.168701
v 0.257817 -0.496361 -0.181365
v 0.282592 -0.541410 -0.026390
v 0.237324 -0.506759 -0.020395
v -0.355001 -0.495707 -0.001152
v -0.323156 -0.452332 0.026153
v -0.558591 -0.306096 -0.048659
v -0.539476 -0.381065 -0.055935
v -0.351660 -0.437869 -0.197745
v -0.376378 -0.484860 -0.169076
v -0.257817 -0.496361 -0.181365
v -0.300709 -0.532218 -0.168701
v -0.237324 -0.506759 -0.020395
v -0.282592 -0.541410 -0.026390
vt 0.2812 0.9375
vt 0.2812 0.8125
vt 0.3125 0.8125
vt 0.3125 0.9375
vt 0.2812 0.6875
vt 0.3125 0.6875
vt 0.2812 0.5938
vt 0.3125 0.5938
vt 0.2812 0.5312
vt 0.3125 0.5312
vt 0.2812 1.0000
vt 0.3125 1.0000
vt 0.2812 0.9375
vt 0.3125 0.9375
vt 0.3125 0.8125
vt 0.2812 0.8125
vt 0.3125 0.6875
vt 0.2812 0.6875
vt 0.3125 0.5938
vt 0.2812 0.5938
vt 0.3125 0.5312
vt 0.2812 0.5312
vt 0.2812 1.0000
vt 0.3125 1.0000
vn 0.4077 -0.2154 0.8873
vn 0.6196 -0.1079 -0.7774
vn 0.1304 -0.3554 -0.9256
vn -0.6135 -0.7792 -0.1284
vn -0.0990 -0.4717 0.8762
vn -0.4077 -0.2154 0.8873
vn -0.6196 -0.1079 -0.7774
vn -0.1304 -0.3554 -0.9256
vn 0.6135 -0.7792 -0.1284
vn 0.0990 -0.4717 0.8762
s 1
f 41/49/21 42/50/21 43/51/21 44/52/21
f 42/50/22 45/53/22 46/54/22 43/51/22
f 45/53/23 47/55/23 48/56/23 46/54/23
f 48/56/24 47/55/24 49/57/24 50/58/24
f 49/59/25 41/49/25 44/52/25 50/60/25
f 51/61/26 52/62/26 53/63/26 54/64/26
f 54/64/27 53/63/27 55/65/27 56/66/27
f 56/66/28 55/65/28 57/67/28 58/68/28
f 57/67/29 59/69/29 60/70/29 58/68/29
f 60/71/30 59/72/30 52/62/30 51/61/30
o TwinTail_TwinTailModel
v -0.280924 -0.334170 -0.142913
v -0.281495 -0.315036 -0.019304
v -0.193898 -0.383677 -0.005173
v -0.193804 -0.387556 -0.129880
v -0.312723 -0.456166 -0.001791
v -0.252708 -0.492962 -0.002555
v -0.312733 -0.466636 -0.125870
v -0.252732 -0.496713 -0.127215
v -0.462792 -0.314279 -0.148522
v -0.324160 -0.296028 -0.150473
v -0.422530 -0.059137 -0.231010
v -0.311305 -0.060556 -0.227271
v -0.462889 -0.282171 -0.028191
v -0.324064 -0.272929 -0.027762
v -0.511243 0.540439 -0.217790
v -0.438073 0.585599 -0.217492
v -0.422520 -0.037708 -0.122248
v -0.311297 -0.039198 -0.118539
v -0.617874 0.669668 -0.208419
v -0.563170 0.682030 -0.204829
v -0.511611 0.540381 -0.132035
v -0.438441 0.585541 -0.131737
v -0.560178 0.808560 -0.213283
v -0.515250 0.803433 -0.209282
v -0.620348 0.676528 -0.146665
v -0.565644 0.688890 -0.143075
v -0.593641 0.928075 -0.202486
v -0.563134 0.956093 -0.200280
v -0.565904 0.801569 -0.169599
v -0.520985 0.796439 -0.165597
v -0.601255 0.904266 -0.165432
v -0.569271 0.932219 -0.163548
v 0.280924 -0.334170 -0.142913
v 0.193804 -0.387556 -0.129880
v 0.193898 -0.383677 -0.005173
v 0.281495 -0.315036 -0.019304
v 0.252708 -0.492962 -0.002555
v 0.312723 -0.456166 -0.001791
v 0.252732 -0.496713 -0.127215
v 0.312733 -0.466636 -0.125870
v 0.324160 -0.296028 -0.150473
v 0.462792 -0.314279 -0.148522
v 0.311305 -0.060556 -0.227271
v 0.422530 -0.059137 -0.231010
v 0.462889 -0.282171 -0.028191
v 0.324064 -0.272929 -0.027762
v 0.438073 0.585599 -0.217492
v 0.511243 0.540439 -0.217790
v 0.422520 -0.037708 -0.122248
v 0.311297 -0.039198 -0.118539
v 0.563170 0.682030 -0.204829
v 0.617874 0.669668 -0.208419
v 0.511611 0.540381 -0.132035
v 0.438441 0.585541 -0.131737
v 0.515250 0.803433 -0.209282
v 0.560178 0.808560 -0.213283
v 0.620348 0.676528 -0.146665
v 0.565644 0.688890 -0.143075
v 0.563134 0.956093 -0.200280
v 0.593641 0.928075 -0.202486
v 0.565904 0.801569 -0.169599
v 0.520985 0.796439 -0.165597
v 0.569271 0.932219 -0.163548
v 0.601255 0.904266 -0.165432
vt 0.1875 0.1875
vt 0.1250 0.1875
vt 0.1250 0.1562
vt 0.1875 0.1562
vt 0.0625 0.1875
vt 0.0625 0.1562
vt 0.0000 0.1875
vt 0.0000 0.1562
vt 0.2500 0.1875
vt 0.2500 0.1562
vt 0.1250 0.0938
vt 0.0625 0.0938
vt 0.2500 0.2188
vt 0.1875 0.2500
vt 0.2500 0.2812
vt 0.1875 0.2812
vt 0.0625 0.2188
vt 0.0000 0.2188
vt 0.1250 0.2500
vt 0.2500 0.5312
vt 0.1875 0.5312
vt 0.0625 0.2812
vt 0.0000 0.2812
vt 0.1250 0.2812
vt 0.2500 0.7500
vt 0.1875 0.7500
vt 0.0625 0.5312
vt 0.0000 0.5312
vt 0.1250 0.5312
vt 0.2500 0.8750
vt 0.1875 0.8750
vt 0.0625 0.7500
vt 0.0000 0.7500
vt 0.1250 0.7500
vt 0.2500 0.9375
vt 0.1875 0.9375
vt 0.0625 0.8750
vt 0.0000 0.8750
vt 0.1250 0.8750
vt 0.0625 1.0000
vt 0.0625 0.9375
vt 0.1250 0.9375
vt 0.1250 1.0000
vt 0.0000 0.9375
vt 0.1875 0.1875
vt 0.1875 0.1562
vt 0.1250 0.1562
vt 0.1250 0.1875
vt 0.0625 0.1562
vt 0.0625 0.1875
vt 0.0000 0.1562
vt 0.0000 0.1875
vt 0.2500 0.1875
vt 0.2500 0.1562
vt 0.1250 0.0938
vt 0.0625 0.0938
vt 0.1875 0.2500
vt 0.2500 0.2188
vt 0.1875 0.2812
vt 0.2500 0.2812
vt 0.0000 0.2188
vt 0.0625 0.2188
vt 0.1250 0.2500
vt 0.1875 0.5312
vt 0.2500 0.5312
vt 0.0000 0.2812
vt 0.0625 0.2812
vt 0.1250 0.2812
vt 0.1875 0.7500
vt 0.2500 0.7500
vt 0.0000 0.5312
vt 0.0625 0.5312
vt 0.1250 0.5312
vt 0.1875 0.8750
vt 0.2500 0.8750
vt 0.0000 0.7500
vt 0.0625 0.7500
vt 0.1250 0.7500
vt 0.1875 0.9375
vt 0.2500 0.9375
vt 0.0000 0.8750
vt 0.0625 0.8750
vt 0.1250 0.8750
vt 0.0625 1.0000
vt 0.1250 1.0000
vt 0.1250 0.9375
vt 0.0625 0.9375
vt 0.0000 0.9375
vn 0.5787 0.8122 -0.0737
vn -0.0262 0.0895 0.9956
vn -0.4855 -0.8728 0.0500
vn 0.0272 -0.0914 -0.9954
vn 0.8803 -0.4741 0.0148
vn 0.0150 -0.1417 -0.9898
vn 0.0278 -0.3114 -0.9499
vn -0.7396 -0.6631 0.1153
vn -0.0233 0.1389 0.9900
vn 0.6900 0.7136 -0.1210
vn 0.0168 0.0214 -0.9996
vn -0.9885 0.1472 -0.0348
vn -0.0267 0.3630 0.9314
vn 0.9986 -0.0512 0.0094
vn -0.0092 0.0878 -0.9961
vn -0.9887 -0.1493 0.0146
vn -0.0252 0.0146 0.9996
vn 0.9804 0.1958 -0.0196
vn 0.0807 -0.0683 -0.9944
vn -0.7765 -0.6299 0.0141
vn -0.0547 0.0542 0.9970
vn 0.6205 0.7838 -0.0242
vn 0.0549 0.0888 -0.9945
vn -0.9207 0.3837 -0.0711
vn -0.0904 0.2280 0.9695
vn 0.9276 -0.3666 0.0718
vn -0.6421 0.6929 0.3281
vn -0.9281 -0.2701 -0.2564
vn -0.0621 -0.0478 0.9969
vn 0.9213 0.2976 0.2502
vn -0.5787 0.8122 -0.0737
vn 0.0262 0.0895 0.9956
vn 0.4855 -0.8728 0.0500
vn -0.0272 -0.0914 -0.9954
vn -0.8803 -0.4741 0.0148
vn -0.0150 -0.1417 -0.9898
vn -0.0278 -0.3114 -0.9499
vn 0.7396 -0.6631 0.1153
vn 0.0233 0.1389 0.9900
vn -0.6900 0.7136 -0.1210
vn -0.0168 0.0214 -0.9996
vn 0.9885 0.1472 -0.0348
vn 0.0267 0.3630 0.9314
vn -0.9986 -0.0512 0.0094
vn 0.0092 0.0878 -0.9961
vn 0.9887 -0.1493 0.0146
vn 0.0252 0.0146 0.9996
vn -0.9804 0.1958 -0.0196
vn -0.0807 -0.0683 -0.9944
vn 0.7765 -0.6299 0.0141
vn 0.0547 0.0542 0.9970
vn -0.6205 0.7838 -0.0242
vn -0.0549 0.0888 -0.9945
vn 0.9207 0.3837 -0.0711
vn 0.0904 0.2280 0.9695
vn -0.9276 -0.3666 0.0718
vn 0.6421 0.6929 0.3281
vn 0.9281 -0.2701 -0.2564
vn 0.0621 -0.0478 0.9969
vn -0.9213 0.2976 0.2502
s 1
f 61/73/31 62/74/31 63/75/31 64/76/31
f 62/74/32 65/77/32 66/78/32 63/75/32
f 65/77/33 67/79/33 68/80/33 66/78/33
f 67/81/34 61/73/34 64/76/34 68/82/34
f 64/83/35 63/75/35 66/78/35 68/84/35
f 61/73/36 67/81/36 69/85/36 70/86/36
f 70/86/37 69/85/37 71/87/37 72/88/37
f 67/79/38 65/77/38 73/89/38 69/90/38
f 65/77/39 62/74/39 74/91/39 73/89/39
f 62/74/40 61/73/40 70/86/40 74/91/40
f 72/88/41 71/87/41 75/92/41 76/93/41
f 69/90/42 73/89/42 77/94/42 71/95/42
f 73/89/43 74/91/43 78/96/43 77/94/43
f 74/91/44 70/86/44 72/88/44 78/96/44
f 76/93/45 75/92/45 79/97/45 80/98/45
f 71/95/46 77/94/46 81/99/46 75/100/46
f 77/94/47 78/96/47 82/101/47 81/99/47
f 78/96/48 72/88/48 76/93/48 82/101/48
f 80/98/49 79/97/49 83/102/49 84/103/49
f 75/100/50 81/99/50 85/104/50 79/105/50
f 81/99/51 82/101/51 86/106/51 85/104/51
f 82/101/52 76/93/52 80/98/52 86/106/52
f 84/103/53 83/102/53 87/107/53 88/108/53
f 79/105/54 85/104/54 89/109/54 83/110/54
f 85/104/55 86/106/55 90/111/55 89/109/55
f 86/106/56 80/98/56 84/103/56 90/111/56
f 87/112/57 91/113/57 92/114/57 88/115/57
f 83/110/58 89/109/58 91/113/58 87/116/58
f 89/109/59 90/111/59 92/114/59 91/113/59
f 90/111/60 84/103/60 88/108/60 92/114/60
f 93/117/61 94/118/61 95/119/61 96/120/61
f 96/120/62 95/119/62 97/121/62 98/122/62
f 98/122/63 97/121/63 99/123/63 100/124/63
f 100/125/64 99/126/64 94/118/64 93/117/64
f 94/127/65 99/128/65 97/121/65 95/119/65
f 93/117/66 101/129/66 102/130/66 100/125/66
f 101/129/67 103/131/67 104/132/67 102/130/67
f 100/124/68 102/133/68 105/134/68 98/122/68
f 98/122/69 105/134/69 106/135/69 96/120/69
f 96/120/70 106/135/70 101/129/70 93/117/70
f 103/131/71 107/136/71 108/137/71 104/132/71
f 102/133/72 104/138/72 109/139/72 105/134/72
f 105/134/73 109/139/73 110/140/73 106/135/73
f 106/135/74 110/140/74 103/131/74 101/129/74
f 107/136/75 111/141/75 112/142/75 108/137/75
f 104/138/76 108/143/76 113/144/76 109/139/76
f 109/139/77 113/144/77 114/145/77 110/140/77
f 110/140/78 114/145/78 107/136/78 103/131/78
f 111/141/79 115/146/79 116/147/79 112/142/79
f 108/143/80 112/148/80 117/149/80 113/144/80
f 113/144/81 117/149/81 118/150/81 114/145/81
f 114/145/82 118/150/82 111/141/82 107/136/82
f 115/146/83 119/151/83 120/152/83 116/147/83
f 112/148/84 116/153/84 121/154/84 117/149/84
f 117/149/85 121/154/85 122/155/85 118/150/85
f 118/150/86 122/155/86 115/146/86 111/141/86
f 120/156/87 119/157/87 123/158/87 124/159/87
f 116/153/88 120/160/88 124/159/88 121/154/88
f 121/154/89 124/159/89 123/158/89 122/155/89
f 122/155/90 123/158/90 119/151/90 115/146/90
o Cube.001
v 0.244236 -0.418637 -0.003684
v 0.284696 -0.323173 0.066134
v 0.298811 -0.291242 0.014294
v 0.258352 -0.386706 -0.055525
v 0.316998 -0.337046 0.066384
v 0.331113 -0.305115 0.014544
v 0.276539 -0.432510 -0.003434
v 0.290654 -0.400579 -0.055274
v -0.244236 -0.418637 -0.003684
v -0.258352 -0.386706 -0.055525
v -0.298811 -0.291242 0.014294
v -0.284696 -0.323173 0.066134
v -0.331113 -0.305115 0.014544
v -0.316998 -0.337046 0.066384
v -0.290654 -0.400579 -0.055274
v -0.276539 -0.432510 -0.003434
vt 0.5625 0.9688
vt 0.5625 0.8438
vt 0.6250 0.8438
vt 0.6250 0.9688
vt 0.7188 0.8125
vt 0.7188 0.8438
vt 0.6562 0.8438
vt 0.6562 0.8125
vt 0.7188 0.9688
vt 0.6562 0.9688
vt 0.7188 1.0000
vt 0.6562 1.0000
vt 0.7500 0.8438
vt 0.7500 0.9688
vt 0.5625 0.9688
vt 0.6250 0.9688
vt 0.6250 0.8438
vt 0.5625 0.8438
vt 0.7188 0.8125
vt 0.6562 0.8125
vt 0.6562 0.8438
vt 0.7188 0.8438
vt 0.6562 0.9688
vt 0.7188 0.9688
vt 0.6562 1.0000
vt 0.7188 1.0000
vt 0.7500 0.9688
vt 0.7500 0.8438
vn -0.9188 0.3946 -0.0071
vn 0.3237 0.7637 0.5585
vn 0.9188 -0.3946 0.0071
vn -0.3237 -0.7637 -0.5585
vn 0.2259 0.5109 -0.8294
vn -0.2258 -0.5109 0.8294
vn 0.9188 0.3946 -0.0071
vn -0.3237 0.7637 0.5585
vn -0.9188 -0.3946 0.0071
vn 0.3237 -0.7637 -0.5585
vn -0.2259 0.5109 -0.8294
vn 0.2258 -0.5109 0.8294
s 1
f 125/161/91 126/162/91 127/163/91 128/164/91
f 126/165/92 129/166/92 130/167/92 127/168/92
f 129/166/93 131/169/93 132/170/93 130/167/93
f 131/169/94 125/171/94 128/172/94 132/170/94
f 128/164/95 127/163/95 130/167/95 132/170/95
f 131/169/96 129/166/96 126/173/96 125/174/96
f 133/175/97 134/176/97 135/177/97 136/178/97
f 136/179/98 135/180/98 137/181/98 138/182/98
f 138/182/99 137/181/99 139/183/99 140/184/99
f 140/184/100 139/183/100 134/185/100 133/186/100
f 134/176/101 139/183/101 137/181/101 135/177/101
f 140/184/102 133/187/102 136/188/102 138/182/102
